<?xml version="1.0" encoding="utf-8"?>
<!-- Generator: Adobe Illustrator 16.0.4, SVG Export Plug-In . SVG Version: 6.00 Build 0)  -->
<!DOCTYPE svg PUBLIC "-//W3C//DTD SVG 1.1//EN" "http://www.w3.org/Graphics/SVG/1.1/DTD/svg11.dtd">
<svg version="1.1" id="Layer_1" xmlns="http://www.w3.org/2000/svg" xmlns:xlink="http://www.w3.org/1999/xlink" x="0px" y="0px"
	 width="2723.81px" height="1200px" viewBox="0 0 2723.81 1200" enable-background="new 0 0 2723.81 1200" xml:space="preserve">
<g>
	<polygon fill="#963694" points="2430.298,970.055 2574.048,897.074 2562.989,1047.459 	"/>
</g>
<g>
	<path fill="#F2C7DD" d="M228.133,952.471c-84.562,0-153.357-68.796-153.357-153.356c0-84.562,68.795-153.357,153.357-153.357
		S381.49,714.553,381.49,799.114C381.49,883.675,312.694,952.471,228.133,952.471z M228.133,655.757
		c-79.047,0-143.357,64.31-143.357,143.357c0,79.047,64.31,143.356,143.357,143.356s143.357-64.31,143.357-143.356
		C371.49,720.066,307.18,655.757,228.133,655.757z"/>
</g>
<g>
	<polygon fill="#F2C7DD" points="2179.556,300.115 2232.556,412.115 2435.556,174.115 	"/>
</g>
<g>
	<polygon fill="#F6EC3F" points="634.048,776.417 1394.048,358.417 2248.048,1054.417 	"/>
</g>
<g>
	<polygon fill="#933393" points="722.048,128 664.048,350 890.048,184 	"/>
</g>
<g>
	<circle fill="#EC3292" cx="381.048" cy="485.115" r="77"/>
</g>
<g>
	<polygon fill="#F6EC3F" points="368.048,703.115 404.048,799.115 292.048,751.115 	"/>
</g>
<g>
	<path fill="#50C5D3" d="M2107.556,417.115c-71.683,0-130-58.318-130-130s58.317-130,130-130s130,58.318,130,130
		S2179.238,417.115,2107.556,417.115z M2107.556,167.115c-66.168,0-120,53.832-120,120s53.832,120,120,120s120-53.832,120-120
		S2173.724,167.115,2107.556,167.115z"/>
</g>
<g>
	<circle fill="#F6EC3F" cx="2282.091" cy="748.072" r="65.043"/>
</g>
<g>
	<path fill="#EC3292" d="M1267.037,384.926c-3.873,4.131-6.713,7.487-12.909,7.487s-9.295-3.356-12.909-7.487
		c-4.131-4.389-9.036-9.811-18.589-9.811s-14.717,5.422-18.589,9.811c-3.873,4.131-6.713,7.487-12.909,7.487
		s-9.295-3.356-12.909-7.487c-4.131-4.389-9.036-9.811-18.589-9.811s-14.717,5.422-18.59,9.811
		c-3.872,4.131-6.713,7.487-12.909,7.487s-9.294-3.356-12.909-7.487c-4.13-4.389-9.036-9.811-18.589-9.811
		s-14.716,5.422-18.589,9.811c-3.873,4.131-6.713,7.487-12.909,7.487s-9.294-3.356-12.909-7.487
		c-4.131-4.389-9.035-9.811-18.589-9.811v7.745c6.196,0,9.295,3.357,12.909,7.488c4.131,4.389,9.036,9.811,18.589,9.811
		s14.717-5.421,18.589-9.811c3.873-4.131,6.713-7.488,12.909-7.488s9.295,3.357,12.909,7.488c4.131,4.389,9.037,9.811,18.589,9.811
		c9.554,0,14.717-5.421,18.59-9.811c3.872-4.131,6.712-7.488,12.909-7.488c6.196,0,9.294,3.357,12.908,7.488
		c4.132,4.389,9.037,9.811,18.59,9.811s14.716-5.421,18.589-9.811c3.873-4.131,6.713-7.488,12.909-7.488s9.294,3.357,12.909,7.488
		c4.131,4.389,9.036,9.811,18.589,9.811s14.717-5.421,18.589-9.811c3.873-4.131,6.713-7.488,12.909-7.488v-7.745
		C1276.073,375.115,1271.168,380.537,1267.037,384.926z"/>
</g>
<g>
	<path fill="#EC3292" d="M1267.037,425.534c-3.873,4.13-6.713,7.487-12.909,7.487s-9.295-3.356-12.909-7.487
		c-4.131-4.389-9.036-9.811-18.589-9.811s-14.717,5.422-18.589,9.811c-3.873,4.13-6.713,7.487-12.909,7.487
		s-9.295-3.356-12.909-7.487c-4.131-4.389-9.036-9.811-18.589-9.811s-14.717,5.422-18.59,9.811
		c-3.872,4.13-6.713,7.487-12.909,7.487s-9.294-3.356-12.909-7.487c-4.13-4.389-9.036-9.811-18.589-9.811
		s-14.716,5.422-18.589,9.811c-3.873,4.13-6.713,7.487-12.909,7.487s-9.294-3.356-12.909-7.487
		c-4.131-4.389-9.035-9.811-18.589-9.811v7.745c6.196,0,9.295,3.356,12.909,7.487c4.131,4.389,9.036,9.811,18.589,9.811
		s14.717-5.422,18.589-9.811c3.873-4.131,6.713-7.487,12.909-7.487s9.295,3.356,12.909,7.487c4.131,4.389,9.037,9.811,18.589,9.811
		c9.554,0,14.717-5.422,18.59-9.811c3.872-4.131,6.712-7.487,12.909-7.487c6.196,0,9.294,3.356,12.908,7.487
		c4.132,4.389,9.037,9.811,18.59,9.811s14.716-5.422,18.589-9.811c3.873-4.131,6.713-7.487,12.909-7.487s9.294,3.356,12.909,7.487
		c4.131,4.389,9.036,9.811,18.589,9.811s14.717-5.422,18.589-9.811c3.873-4.131,6.713-7.487,12.909-7.487v-7.745
		C1276.073,415.723,1271.168,421.145,1267.037,425.534z"/>
</g>
<g>
	<path fill="#EC3292" d="M1267.037,470.141c-3.873,4.131-6.713,7.487-12.909,7.487s-9.295-3.356-12.909-7.487
		c-4.131-4.389-9.036-9.811-18.589-9.811s-14.717,5.422-18.589,9.811c-3.873,4.131-6.713,7.487-12.909,7.487
		s-9.295-3.356-12.909-7.487c-4.131-4.389-9.036-9.811-18.589-9.811s-14.717,5.422-18.59,9.811
		c-3.872,4.131-6.713,7.487-12.909,7.487s-9.294-3.356-12.909-7.487c-4.13-4.389-9.036-9.811-18.589-9.811
		s-14.716,5.422-18.589,9.811c-3.873,4.131-6.713,7.487-12.909,7.487s-9.294-3.356-12.909-7.487
		c-5.164-4.389-10.067-10.068-19.622-10.068v7.746c6.197,0,9.296,3.355,12.909,7.487c4.131,4.39,9.037,9.812,18.59,9.812
		c9.554,0,14.717-5.422,18.59-9.812c3.873-4.131,6.713-7.487,12.908-7.487c6.196,0,9.295,3.355,12.909,7.487
		c4.131,4.39,9.036,9.812,18.589,9.812s14.717-5.422,18.589-9.812c3.873-4.131,6.714-7.487,12.909-7.487
		c6.196,0,9.295,3.355,12.909,7.487c4.131,4.39,9.036,9.812,18.589,9.812s14.717-5.422,18.59-9.812
		c3.872-4.131,6.712-7.487,12.908-7.487c6.197,0,9.295,3.355,12.909,7.487c4.131,4.39,9.036,9.812,18.589,9.812
		s14.717-5.422,18.59-9.812c3.872-4.131,6.712-7.487,12.908-7.487v-7.746C1276.073,460.071,1271.168,465.751,1267.037,470.141z"/>
</g>
<g>
	<circle fill="#50C5D3" cx="1876.548" cy="861.615" r="11.5"/>
</g>
<g>
	<circle fill="#50C5D3" cx="1954.048" cy="861.615" r="11.5"/>
</g>
<g>
	<circle fill="#50C5D3" cx="2031.548" cy="861.615" r="11.5"/>
</g>
<g>
	<circle fill="#50C5D3" cx="2074.048" cy="901.115" r="11.5"/>
</g>
<g>
	<circle fill="#50C5D3" cx="2000.048" cy="901.115" r="11.5"/>
</g>
<g>
	<circle fill="#50C5D3" cx="1926.048" cy="901.115" r="11.5"/>
</g>
<g>
	<rect x="1081.048" y="880.615" fill="#933393" width="488" height="23"/>
</g>
<g enable-background="new    ">
	<path fill="#FFFFFF" d="M747.686,707.85c0,2.37-1.896,4.266-4.266,4.266h-29.621c-2.37,0-4.266-1.896-4.266-4.266V550.502
		c0-2.369,1.896-4.265,4.266-4.265h59.716c45.972,0,59.953,32.228,59.953,54.739c0,33.176-29.147,55.451-57.11,55.451h-28.673
		V707.85z M795.554,600.977c0-6.872-3.792-19.668-20.854-19.668h-27.014v39.573h27.725
		C791.762,620.408,795.554,607.138,795.554,600.977z"/>
	<path fill="#FFFFFF" d="M909.303,647.896v28.91h72.513c2.37,0,4.266,1.896,4.266,4.266v26.777c0,2.37-1.896,4.266-4.266,4.266
		H875.653c-2.37,0-4.266-1.896-4.266-4.266V550.502c0-2.369,1.896-4.265,4.266-4.265h106.162c2.37,0,4.266,1.896,4.266,4.265v26.778
		c0,2.369-1.896,4.265-4.266,4.265h-72.513v31.043h55.688c2.37,0,4.265,1.896,4.265,4.266v26.777c0,2.37-1.896,4.266-4.265,4.266
		H909.303z"/>
	<path fill="#FFFFFF" d="M1028.265,712.115c-2.37,0-4.266-1.896-4.266-4.266V547.422c0-1.896,1.422-3.555,3.318-3.555
		c2.37,0,4.502,0.948,6.161,2.37l90.048,84.124v-79.859c0-2.369,1.896-4.265,4.265-4.265h29.384c2.37,0,4.266,1.896,4.266,4.265
		V710.22c0,1.658-1.422,3.08-3.081,3.08c-1.896,0-3.792-0.711-5.213-2.133l-90.996-86.02v82.702c0,2.37-1.896,4.266-4.266,4.266
		H1028.265z"/>
	<path fill="#FFFFFF" d="M1213.105,712.115c-2.37,0-4.266-1.896-4.266-4.266V547.422c0-1.896,1.422-3.555,3.318-3.555
		c2.37,0,4.502,0.948,6.161,2.37l90.048,84.124v-79.859c0-2.369,1.896-4.265,4.266-4.265h29.384c2.37,0,4.266,1.896,4.266,4.265
		V710.22c0,1.658-1.422,3.08-3.08,3.08c-1.896,0-3.792-0.711-5.214-2.133l-90.996-86.02v82.702c0,2.37-1.896,4.266-4.266,4.266
		H1213.105z"/>
	<path fill="#FFFFFF" d="M1535.861,708.324c0.948,1.658-0.474,3.791-2.369,3.791h-33.887c-2.606,0-4.977-1.659-5.924-4.028
		l-11.849-29.621h-48.815l-11.849,29.621c-0.948,2.369-3.317,4.028-5.925,4.028h-33.886c-1.896,0-3.318-2.133-2.607-3.791
		l72.75-160.191c0.947-2.37,3.317-3.792,5.688-3.792c2.369,0,4.739,1.422,5.687,3.792L1535.861,708.324z M1444.865,648.845h24.882
		l-12.322-30.807L1444.865,648.845z"/>
	<path fill="#FFFFFF" d="M1606.718,707.85c0,2.37-1.896,4.266-4.266,4.266h-29.621c-2.369,0-4.265-1.896-4.265-4.266V550.502
		c0-2.369,1.896-4.265,4.265-4.265h59.717c45.972,0,59.953,32.228,59.953,54.739c0,33.176-29.147,55.451-57.109,55.451h-28.674
		V707.85z M1654.586,600.977c0-6.872-3.792-19.668-20.854-19.668h-27.015v39.573h27.726
		C1650.794,620.408,1654.586,607.138,1654.586,600.977z"/>
	<path fill="#FFFFFF" d="M1768.571,707.85c0,2.37-1.896,4.266-4.266,4.266h-29.621c-2.369,0-4.265-1.896-4.265-4.266V550.502
		c0-2.369,1.896-4.265,4.265-4.265h59.717c45.972,0,59.953,32.228,59.953,54.739c0,33.176-29.147,55.451-57.109,55.451h-28.674
		V707.85z M1816.439,600.977c0-6.872-3.792-19.668-20.854-19.668h-27.015v39.573h27.726
		C1812.647,620.408,1816.439,607.138,1816.439,600.977z"/>
	<path fill="#FFFFFF" d="M2009.811,662.589c0,28.91-25.118,51.422-61.375,51.422c-22.985,0-41.706-5.687-61.849-16.113
		c-2.133-0.948-2.844-3.555-1.896-5.688l13.033-24.171c0.947-2.133,3.555-2.844,5.687-1.896
		c15.166,6.872,29.858,12.322,43.603,12.322c12.322,0,22.749-5.925,22.749-14.219c0-10.426-12.796-14.929-28.437-19.905
		c-23.934-7.819-54.028-17.062-54.028-51.185c0-31.043,22.986-49.527,54.739-49.527c10.427,0,32.229,1.422,59.953,14.219
		c2.133,1.185,3.081,3.555,2.133,5.924l-10.663,24.408c-0.948,2.133-3.317,3.08-5.688,2.133
		c-10.427-3.792-30.095-10.901-43.365-10.901c-9.953,0-19.194,3.081-18.957,12.086c0.947,10.189,17.535,14.692,36.019,21.327
		C1984.455,620.882,2009.811,632.257,2009.811,662.589z"/>
</g>
<g enable-background="new    ">
	<path fill="#50C4D2" d="M741.686,702.151c0,2.37-1.896,4.266-4.266,4.266h-29.621c-2.37,0-4.266-1.896-4.266-4.266V544.804
		c0-2.369,1.896-4.265,4.266-4.265h59.716c45.972,0,59.953,32.228,59.953,54.739c0,33.176-29.147,55.451-57.11,55.451h-28.673
		V702.151z M789.554,595.278c0-6.872-3.792-19.668-20.854-19.668h-27.014v39.573h27.725
		C785.762,614.71,789.554,601.439,789.554,595.278z"/>
	<path fill="#50C4D2" d="M903.303,642.198v28.91h72.513c2.37,0,4.266,1.896,4.266,4.266v26.777c0,2.37-1.896,4.266-4.266,4.266
		H869.653c-2.37,0-4.266-1.896-4.266-4.266V544.804c0-2.369,1.896-4.265,4.266-4.265h106.162c2.37,0,4.266,1.896,4.266,4.265v26.778
		c0,2.369-1.896,4.265-4.266,4.265h-72.513v31.043h55.688c2.37,0,4.265,1.896,4.265,4.266v26.777c0,2.37-1.896,4.266-4.265,4.266
		H903.303z"/>
	<path fill="#50C4D2" d="M1022.265,706.417c-2.37,0-4.266-1.896-4.266-4.266V541.724c0-1.896,1.422-3.555,3.318-3.555
		c2.37,0,4.502,0.948,6.161,2.37l90.048,84.124v-79.859c0-2.369,1.896-4.265,4.265-4.265h29.384c2.37,0,4.266,1.896,4.266,4.265
		v159.718c0,1.658-1.422,3.08-3.081,3.08c-1.896,0-3.792-0.711-5.213-2.133l-90.996-86.02v82.702c0,2.37-1.896,4.266-4.266,4.266
		H1022.265z"/>
	<path fill="#50C4D2" d="M1207.105,706.417c-2.37,0-4.266-1.896-4.266-4.266V541.724c0-1.896,1.422-3.555,3.318-3.555
		c2.37,0,4.502,0.948,6.161,2.37l90.048,84.124v-79.859c0-2.369,1.896-4.265,4.266-4.265h29.384c2.37,0,4.266,1.896,4.266,4.265
		v159.718c0,1.658-1.422,3.08-3.08,3.08c-1.896,0-3.792-0.711-5.214-2.133l-90.996-86.02v82.702c0,2.37-1.896,4.266-4.266,4.266
		H1207.105z"/>
	<path fill="#50C4D2" d="M1529.861,702.626c0.948,1.658-0.474,3.791-2.369,3.791h-33.887c-2.606,0-4.977-1.659-5.924-4.028
		l-11.849-29.621h-48.815l-11.849,29.621c-0.948,2.369-3.317,4.028-5.925,4.028h-33.886c-1.896,0-3.318-2.133-2.607-3.791
		l72.75-160.191c0.947-2.37,3.317-3.792,5.688-3.792c2.369,0,4.739,1.422,5.687,3.792L1529.861,702.626z M1438.865,643.146h24.882
		l-12.322-30.807L1438.865,643.146z"/>
	<path fill="#50C4D2" d="M1600.718,702.151c0,2.37-1.896,4.266-4.266,4.266h-29.621c-2.369,0-4.265-1.896-4.265-4.266V544.804
		c0-2.369,1.896-4.265,4.265-4.265h59.717c45.972,0,59.953,32.228,59.953,54.739c0,33.176-29.147,55.451-57.109,55.451h-28.674
		V702.151z M1648.586,595.278c0-6.872-3.792-19.668-20.854-19.668h-27.015v39.573h27.726
		C1644.794,614.71,1648.586,601.439,1648.586,595.278z"/>
	<path fill="#50C4D2" d="M1762.571,702.151c0,2.37-1.896,4.266-4.266,4.266h-29.621c-2.369,0-4.265-1.896-4.265-4.266V544.804
		c0-2.369,1.896-4.265,4.265-4.265h59.717c45.972,0,59.953,32.228,59.953,54.739c0,33.176-29.147,55.451-57.109,55.451h-28.674
		V702.151z M1810.439,595.278c0-6.872-3.792-19.668-20.854-19.668h-27.015v39.573h27.726
		C1806.647,614.71,1810.439,601.439,1810.439,595.278z"/>
	<path fill="#50C4D2" d="M2003.811,656.891c0,28.91-25.118,51.422-61.375,51.422c-22.985,0-41.706-5.687-61.849-16.113
		c-2.133-0.948-2.844-3.555-1.896-5.688l13.033-24.171c0.947-2.133,3.555-2.844,5.687-1.896
		c15.166,6.872,29.858,12.322,43.603,12.322c12.322,0,22.749-5.925,22.749-14.219c0-10.426-12.796-14.929-28.437-19.905
		c-23.934-7.819-54.028-17.062-54.028-51.185c0-31.043,22.986-49.527,54.739-49.527c10.427,0,32.229,1.422,59.953,14.219
		c2.133,1.185,3.081,3.555,2.133,5.924l-10.663,24.408c-0.948,2.133-3.317,3.08-5.688,2.133
		c-10.427-3.792-30.095-10.901-43.365-10.901c-9.953,0-19.194,3.081-18.957,12.086c0.947,10.189,17.535,14.692,36.019,21.327
		C1978.455,615.184,2003.811,626.559,2003.811,656.891z"/>
</g>
<g enable-background="new    ">
	<path fill="#010101" d="M1766.637,729.347l0.762,3.203l-0.174,0.345c-0.262,5.652-1.338,10.848-3.236,15.594
		c-1.896,4.748-4.04,9.335-6.426,13.759c-0.523,0.747-1.133,1.81-1.832,3.19c-0.934,1.843-2.139,3.434-3.613,4.781
		c-1.479,1.347-2.994,2.275-4.554,2.786c-1.614,0.341-3.078,1.009-4.377,2.01c-1.304,1.003-2.591,2.193-3.866,3.569
		c-0.925,0.689-1.837,1.42-2.734,2.19c-0.897,0.775-1.898,1.535-2.996,2.277c-2.72,1.66-5.61,3.952-8.682,6.873
		c-1.162,1.149-2.289,2.238-3.389,3.27c-1.1,1.035-2.288,1.95-3.56,2.748c-3.703,2.753-7.511,5.482-11.413,8.2
		c-3.906,2.72-7.737,5.368-11.498,7.94c-1.1,0.747-2.156,1.476-3.168,2.19c-1.014,0.718-2.155,1.475-3.427,2.273l6.899,3.494
		c0.516,0.406,1.091,0.843,1.724,1.305c0.63,0.469,1.203,0.901,1.723,1.307c0.572,0.581,1.375,1.275,2.411,2.088l7.755,5.228
		c1.15,0.585,2.241,1.28,3.275,2.092c1.031,0.812,2.123,1.512,3.275,2.092c1.263,0.931,2.496,1.772,3.706,2.526
		c1.205,0.756,2.439,1.602,3.705,2.527c0.747,0.523,2.886,1.644,6.425,3.361c3.535,1.719,7.362,3.587,11.473,5.593
		c4.112,2.012,7.907,3.934,11.386,5.766c3.479,1.836,5.592,3.015,6.337,3.534c0.69,0.35,1.436,0.73,2.243,1.136
		c0.804,0.411,1.582,0.875,2.328,1.396c0.746,0.523,1.534,1.035,2.369,1.525c0.832,0.495,1.71,0.977,2.631,1.439
		c0.746,0.521,1.748,1.536,3.011,3.042c0.171,0.521,0.481,0.896,0.945,1.13c0.056,0.17,0.14,0.287,0.258,0.347
		c0.113,0.057,0.2,0.172,0.258,0.347l0.86,0.869c1.38,0.699,2.745,1.353,4.097,1.967c1.351,0.609,2.628,1.297,3.838,2.051
		c1.551,0.645,3.073,1.341,4.572,2.1c1.493,0.756,3.046,1.543,4.657,2.358l10.696,5.416c0.745,0.52,1.505,0.945,2.284,1.267
		c0.775,0.32,1.539,0.74,2.285,1.265l1.035,0.524l0.148,4.843l-1.904,0.337l1.985,0.787l0.17,0.52
		c0.227,0.69,0.336,1.329,0.336,1.904c-0.062,0.403-0.123,0.806-0.179,1.21c-0.062,0.403-0.123,0.805-0.179,1.21l-0.18,1.209
		l-0.269,1.815l-1.47-0.095c-0.809-0.121-1.328-0.238-1.555-0.354c-0.349,0.114-0.477-0.275-0.383-1.169
		c0.089-0.894,0.269-1.815,0.532-2.765c0.265-0.949,0.439-1.871,0.533-2.765c0.09-0.892,0.047-1.31-0.123-1.254l-0.52,0.171
		l-1.039,0.34c-0.176,0.058-0.322,0.199-0.435,0.43l-1.3,0.426c-0.926,0.686-1.738,1.146-2.429,1.371l-1.039,0.341
		c-0.751,0.053-1.441-0.009-2.075-0.183c-0.633-0.179-1.266-0.354-1.899-0.528c-0.463-0.236-0.778-0.321-0.949-0.265
		c-0.864-0.293-1.716-0.545-2.547-0.748c-0.837-0.207-1.687-0.454-2.548-0.748c-3.224-1.057-6.303-1.963-9.238-2.728
		c-0.809-0.123-1.572-0.255-2.289-0.401c-0.725-0.15-1.572-0.254-2.55-0.315c-1.384-0.122-2.725-0.259-4.02-0.41
		c-1.299-0.15-2.521-0.518-3.669-1.1c-3.687-1.287-7.222-2.719-10.614-4.291c-3.394-1.576-6.815-3.234-10.265-4.981
		c-2.936-1.34-7.133-3.323-12.596-5.944c-5.463-2.62-11.157-5.358-17.079-8.215c-5.926-2.852-11.547-5.519-16.865-7.999
		c-5.319-2.473-9.16-4.38-11.515-5.722c-1.38-0.699-2.703-1.512-3.965-2.441c-1.266-0.926-2.529-1.856-3.791-2.787
		c-0.463-0.23-0.905-0.566-1.336-1.001c-0.43-0.434-0.875-0.765-1.335-1.002c-9.536-6.847-18.592-11.36-27.169-13.54
		c-0.406-0.057-1.26,0.412-2.56,1.413c-1.303,1.003-2.604,2.148-3.908,3.439c-1.304,1.29-2.45,2.483-3.435,3.57
		c-0.986,1.092-1.393,1.608-1.219,1.551c-1.107,2.477-2.128,4.92-3.063,7.335c-0.934,2.418-1.67,4.863-2.198,7.339
		c-0.772,4.092-1.845,8.135-3.219,12.133c-1.377,4.003-2.794,7.87-4.253,11.609c-1.642,4.953-3.346,8.82-5.118,11.605
		c-1.774,2.788-3.487,5.314-5.141,7.582c-1.656,2.27-3.123,4.67-4.403,7.198c-1.282,2.534-2.194,5.899-2.731,10.104
		c-1.228,3.28-2.602,6.414-4.112,9.404c-1.455,2.585-2.938,5.086-4.449,7.501c-1.512,2.41-2.994,4.911-4.448,7.5
		c-0.235,0.459-0.553,0.946-0.958,1.465c-0.407,0.516-0.728,1.004-0.959,1.465c-0.464,0.917-1.044,1.494-1.738,1.722
		c-0.114,0.226-0.26,0.373-0.435,0.43l-0.26,0.085c-0.232,0.458-0.435,0.719-0.609,0.775c-1.219,1.55-2.234,3.129-3.05,4.741
		c-0.818,2.183-1.649,4.325-2.497,6.43c-0.846,2.098-1.677,4.24-2.498,6.429c-1.342,3.507-2.656,6.959-3.943,10.357
		c-1.285,3.393-2.686,6.873-4.204,10.44c-0.644,1.552-1.457,3.019-2.444,4.399c-0.987,1.375-2.029,2.724-3.133,4.047l-2.353,3.36
		l-0.35,0.69l-0.52,0.17c-0.864,0.283-1.498,0.393-1.904,0.336l-1.818,0.597c-0.865,0.283-1.442,0.567-1.733,0.855l-1.04,0.341
		c-1.04,0.341-1.729,0.279-2.074-0.184c-0.805-0.697-1.23-1.71-1.281-3.033l-0.171-0.52l-0.34-1.039l0.608-0.775
		c0.235-0.463,0.424-0.764,0.567-0.905c0.145-0.146,0.248-0.419,0.307-0.819c1.048-1.494,1.742-2.586,2.092-3.275
		c0.179-0.635,0.412-1.24,0.701-1.812c0.292-0.576,0.525-1.18,0.7-1.812c0.354-1.267,0.704-2.244,1.053-2.934
		c0.585-1.154,1.106-2.332,1.575-3.537c0.467-1.21,0.993-2.391,1.574-3.538c1.283-2.533,2.434-5.02,3.454-7.462
		c1.022-2.449,1.771-4.997,2.244-7.642c0.593-3.459,1.419-6.797,2.472-10.02c1.057-3.224,2.138-6.36,3.247-9.408
		c0.704-1.958,1.376-3.858,2.019-5.698c0.646-1.843,1.229-3.711,1.758-5.611c1.996-6.791,3.947-13.279,5.85-19.469
		c1.902-6.186,3.471-10.921,4.698-14.202c1.638-4.948,3.378-10.026,5.224-15.235c1.841-5.207,3.641-10.402,5.396-15.581
		c1.11-3.048,2.222-5.952,3.331-8.716c1.11-2.761,2.245-5.579,3.415-8.457c0.874-2.014,1.693-4.054,2.453-6.128
		c0.76-2.069,1.547-4.197,2.366-6.387c1.168-2.873,2.163-5.695,2.983-8.46c0.175-0.633,0.381-1.32,0.615-2.071
		c0.232-0.747,0.438-1.438,0.616-2.073c0.232-0.457,0.379-0.889,0.439-1.294c0.058-0.401,0.204-0.832,0.438-1.295
		c0.465-0.917,0.861-1.767,1.181-2.545c0.322-0.776,0.714-1.624,1.181-2.546c1.629-3.218,3.189-6.512,4.677-9.877
		c1.487-3.364,3.044-6.653,4.677-9.876c0.349-0.691,0.756-1.206,1.219-1.552c0.463-0.341,0.926-0.685,1.389-1.029
		c0.17-0.057,0.331-0.154,0.477-0.301c0.143-0.141,0.303-0.243,0.477-0.3l0.35-0.69l1.842-4.919
		c0.057-0.401,0.321-1.063,0.788-1.985l0.614-1.64l1.295,0.438c0.401,0.062,0.659,0.121,0.776,0.177
		c0.115,0.062,0.372,0.12,0.778,0.177c1.379,0.123,2.764,0.534,4.144,1.232c0.69,0.35,1.19,0.859,1.506,1.521
		c0.312,0.666,0.585,1.346,0.811,2.036c0.058,0.175,0.126,0.246,0.216,0.217c0.085-0.027,0.159,0.047,0.215,0.218
		c0.114,0.35,0.183,0.709,0.211,1.083c0.024,0.377,0.097,0.735,0.21,1.081l-0.26,0.085c0.573,0.582,1.091,1.131,1.548,1.651
		c0.46,0.523,0.944,0.985,1.464,1.391c0.63,0.756,1.375,1.563,2.235,2.433s1.632,1.768,2.321,2.692
		c0.572,0.581,0.886,1.247,0.94,1.994c0.054,0.751,0.195,1.473,0.422,2.163c-0.117,0.232-0.117,0.52-0.005,0.865
		c0.398,1.214,1.084,2.141,2.062,2.777c1.031,0.813,1.896,1.105,2.59,0.878l0.175-0.345c1.039-0.341,2.368-0.966,3.987-1.882
		c2.311-1.141,4.696-2.354,7.152-3.639c2.457-1.282,4.781-2.669,6.982-4.159c1.097-0.741,2.226-1.399,3.383-1.971
		c1.153-0.568,2.282-1.226,3.382-1.972c4.682-2.686,9.268-5.528,13.75-8.535c4.483-3.002,8.752-6.51,12.808-10.527
		c2.552-2.751,5.189-5.679,7.914-8.779c2.727-3.097,5.132-6.431,7.229-9.995c3.896-6.838,4.626-13.983,2.185-21.435
		c-0.515-0.981-1.491-1.764-2.929-2.35c-1.439-0.58-3.054-0.675-4.841-0.283c-1.444,0.284-2.772,0.621-3.983,1.018
		c-1.213,0.397-2.513,0.823-3.897,1.277c-11.433,3.746-22.733,9.368-33.896,16.862c-5.206,3.433-10.354,7.039-15.447,10.816
		c-3.532,2.696-7.175,5.328-10.937,7.899c-3.759,2.577-7.463,5.036-11.105,7.382c-2.488,1.777-4.718,3.466-6.685,5.067
		c-1.969,1.607-3.993,3.18-6.077,4.726c-2.083,1.545-4.338,2.717-6.763,3.512c-0.349,0.113-0.752,0.201-1.212,0.252
		c-0.462,0.057-0.866,0.14-1.212,0.253c-0.52,0.171-1.026,0.53-1.519,1.074c-0.495,0.548-1.116,1.134-1.868,1.763
		c-0.405,0.52-1.189,1.352-2.347,2.495c-1.219,0.976-2.348,1.921-3.388,2.837c-1.044,0.918-2.2,1.777-3.472,2.576
		c-2.258,1.892-4.517,3.782-6.773,5.673c-2.259,1.892-4.487,3.871-6.689,5.933c-0.698,0.805-1.423,1.666-2.175,2.583
		c-0.755,0.921-1.452,1.87-2.09,2.844c-0.755,1.208-1.539,2.328-2.353,3.359c-0.812,1.035-1.827,2.038-3.041,3.012
		c-1.969,1.606-4.082,3.063-6.335,4.378c-2.258,1.315-4.567,2.17-6.931,2.559c-1.215,0.398-2.411,0.407-3.589,0.024
		c-1.181-0.378-2.431-0.831-3.755-1.358c-0.462-0.231-0.965-0.448-1.51-0.657c-0.548-0.202-1.137-0.392-1.77-0.57l-2.85-0.794
		l2.262-2.754c0.289-0.285,0.537-0.559,0.739-0.818c0.204-0.256,0.447-0.529,0.739-0.817c0.926-0.687,1.768-1.632,2.521-2.841
		c5.692-8.385,11.728-16.023,18.104-22.91c6.378-6.883,12.636-13.249,18.775-19.102c2.607-2.581,5.357-5.016,8.252-7.309
		c2.893-2.287,5.702-4.553,8.423-6.788c2.603-2.005,5.121-3.979,7.554-5.928c2.428-1.947,4.805-4.066,7.123-6.362
		c5.792-5.158,11.781-9.711,17.97-13.658c6.189-3.943,12.345-7.688,18.476-11.234c1.966-1.026,3.902-2.141,5.811-3.343
		c1.908-1.2,3.847-2.312,5.811-3.343c0.752-0.629,1.561-1.086,2.429-1.371c0.864-0.283,1.729-0.566,2.599-0.852l3.118-1.021
		l4.157-1.362l0.436-0.431c0.17-0.055,0.286-0.139,0.347-0.257c0.058-0.114,0.173-0.2,0.347-0.258l0.175-0.345l1.56-0.511
		l0.345,0.175l0.69,0.349c0.17-0.056,0.289,0.004,0.345,0.175c1.962-0.449,3.793-0.856,5.497-1.227
		c1.701-0.363,3.447-0.743,5.238-1.141c3.402-0.728,6.854-1.477,10.345-2.238c3.492-0.758,6.967-1.42,10.43-1.979
		c12.749-2.064,23.197,1.13,31.341,9.585c1.319,1.104,2.365,2.391,3.137,3.863c0.771,1.475,1.582,2.936,2.441,4.381
		c0.456,0.812,0.826,1.504,1.114,2.08c0.285,0.582,0.628,1.188,1.028,1.821L1766.637,729.347z"/>
	<path fill="#010101" d="M1776.086,843.367c1.324,0.529,3.846,0.035,7.573-1.474c3.724-1.509,7.987-3.575,12.786-6.205
		c4.797-2.624,9.885-5.541,15.264-8.742c5.377-3.201,10.482-6.214,15.31-9.045c4.828-2.827,9.078-5.228,12.747-7.199
		c3.672-1.967,6.227-3.092,7.67-3.377l-0.174,0.345c-0.58,0.578-2.229,1.98-4.95,4.212c-2.72,2.236-5.935,4.873-9.64,7.907
		c-3.706,3.041-7.728,6.273-12.068,9.71c-4.342,3.437-8.425,6.646-12.242,9.622c-3.82,2.979-7.09,5.588-9.811,7.819
		c-2.721,2.235-4.401,3.556-5.036,3.952c-2.258,1.891-4.761,3.336-7.502,4.329c-2.743,0.998-5.674,1.716-8.788,2.159
		c-7.441,0.713-13.947-0.99-19.517-5.113c-0.575-0.576-1.176-1.242-1.806-1.999c-0.633-0.749-1.262-1.502-1.891-2.257
		c-1.65-3.87-1.629-8.77,0.074-14.701c1.7-5.926,4.078-11.84,7.139-17.733c3.055-5.894,6.282-11.411,9.682-16.554
		c3.396-5.141,5.854-8.919,7.365-11.334c0.869-1.436,2.395-3.229,4.567-5.381c2.173-2.15,4.688-4.271,7.555-6.361
		c2.863-2.089,6.058-4.043,9.586-5.875c3.524-1.823,7.075-3.131,10.655-3.923c2.714-0.502,4.696,0.144,5.957,1.933
		c1.259,1.796,2.722,3.475,4.386,5.039c1.03,0.812,2.991,0.938,5.878,0.375c1.669,0.415,3.224,1.058,4.659,1.927
		c1.438,0.873,2.496,2.348,3.177,4.426c-0.637,0.402-0.929,1.267-0.878,2.59c-0.528,1.9-0.927,3.469-1.19,4.706
		c-0.27,1.24-0.531,2.332-0.795,3.282c-0.265,0.95-0.645,1.986-1.141,3.107c-0.494,1.124-1.125,2.576-1.881,4.357
		c-1.454,2.589-4.551,4.993-9.29,7.216c-4.737,2.228-9.592,4.25-14.559,6.066c-5.834,2.104-12.358,4.147-19.573,6.126l-0.26,0.085
		c-1.049,2.07-2.155,4.402-3.322,6.987c-1.166,2.591-2.16,5.124-2.979,7.595c-0.82,2.477-1.509,4.767-2.067,6.864
		C1776.196,840.935,1775.973,842.447,1776.086,843.367z M1799.873,807.947c7.032-11.318,10.157-19.056,9.371-23.213
		c-3.358,2.638-7.011,6.568-10.956,11.791c-3.948,5.229-7.492,10.656-10.632,16.29c1.673-0.163,3.545-0.73,5.629-1.701
		C1795.363,810.145,1797.56,809.093,1799.873,807.947z"/>
	<path fill="#010101" d="M1875.426,761.033c-0.763,2.363-1.86,5.889-3.297,10.576c-1.438,4.693-2.875,9.529-4.311,14.505
		c-1.439,4.981-2.745,9.488-3.917,13.514c-1.175,4.032-1.878,6.563-2.114,7.6c3.596-4.245,6.685-7.991,9.268-11.238
		c2.578-3.242,5.436-6.817,8.571-10.723c3.132-3.903,6.091-7.606,8.877-11.109c2.782-3.501,5.265-6.617,7.44-9.345
		c2.174-2.727,3.609-4.491,4.309-5.295c-0.236,1.038-1.371,3.281-3.407,6.727c-2.034,3.45-4.509,7.619-7.413,12.5
		c-2.909,4.888-6.062,10.044-9.462,15.475c-3.4,5.43-6.67,10.531-9.806,15.299c-3.141,4.77-5.827,8.865-8.062,12.281
		c-2.237,3.422-3.62,5.502-4.14,6.249l-1.572,3.104c-0.234,0.464-0.757,1.066-1.565,1.809c-0.812,0.747-1.823,1.461-3.038,2.146
		c-1.214,0.686-2.4,1.317-3.555,1.885c-1.158,0.568-2.14,0.796-2.943,0.677c-0.982-0.061-1.887-0.339-2.72-0.835
		c-0.831-0.492-1.736-1.06-2.716-1.7c-3.846-2.382-5.1-5.905-3.75-10.568l26.425-94.987c-4.157,1.362-7.535,2.47-10.134,3.321
		s-4.925,1.52-6.972,1.996c-2.05,0.482-4.011,0.934-5.887,1.354c-1.875,0.425-3.942,1.004-6.191,1.741
		c-0.869,0.285-1.734,0.28-2.595-0.014c-0.864-0.291-1.7-0.494-2.504-0.618c-1.266-0.35-2.578-0.688-3.93-1.014
		c-1.355-0.32-2.431-0.832-3.235-1.53c-2.354-1.912-3.988-3.967-4.897-6.164c-0.17-0.52,0.036-1.207,0.615-2.072
		c0.582-0.859,1.217-1.405,1.912-1.633c1.328-0.625,4.174-1.751,8.534-3.372c4.361-1.618,9.152-3.382,14.382-5.288
		c5.226-1.902,10.381-3.734,15.463-5.5c5.08-1.759,8.952-2.978,11.606-3.659c1.935-6.964,3.901-13.696,5.896-20.205
		c1.992-6.502,3.752-12.258,5.276-17.267c1.525-5.005,3.283-10.617,5.273-16.836c0.407-0.515,0.87-1.147,1.394-1.895
		c0.521-0.746,0.984-1.087,1.389-1.031c4.324-0.266,8.157,0.016,11.497,0.837c2.821,0.42,4.561,1.625,5.213,3.615
		c0.653,1.993,0.281,4.368-1.117,7.128c-0.292,0.864-0.837,2.576-1.626,5.137c-0.793,2.562-1.613,5.326-2.464,8.289
		c-0.852,2.969-1.7,5.786-2.551,8.461c-0.848,2.68-1.363,4.619-1.543,5.829c-0.121,0.81-0.324,1.645-0.617,2.505
		c-0.122,0.809-0.341,1.745-0.663,2.808c-0.324,1.068-0.663,2.231-1.013,3.497l16.895-6.399l5.288-2.308
		c0.52-0.17,1.079-0.354,1.688-0.554c0.605-0.198,1.137-0.18,1.6,0.052c2.359,0.764,4.733,1.424,7.124,1.981
		c2.387,0.562,4.704,1.336,6.948,2.326c0.516,0.407,1.146,1.163,1.892,2.258c0.743,1.101,1.083,2.142,1.021,3.118
		c-0.064,0.984-0.3,2.019-0.708,3.109c-0.409,1.098-1.018,1.872-1.827,2.326c-1.851,0.799-3.497,1.482-4.939,2.051
		c-1.444,0.571-3.671,1.395-6.671,2.473c-3.004,1.083-7.178,2.546-12.518,4.391c-5.343,1.849-12.633,4.477-21.875,7.887
		c-2.293,8.232-4.522,16.206-6.693,23.919C1878.092,752.346,1876.479,757.811,1875.426,761.033z"/>
	<path fill="#010101" d="M1983.593,746.02c0.346-0.113,0.808-0.311,1.387-0.599c0.577-0.284,1.241-0.739,1.996-1.374
		c-7.603,9.591-14.65,18.519-21.149,26.785c-2.672,3.564-5.413,7.053-8.225,10.466c-2.814,3.417-5.367,6.604-7.658,9.56
		c-2.295,2.959-4.325,5.544-6.093,7.751c-1.771,2.212-3.004,3.718-3.698,4.521c-1.799,2.127-3.767,3.874-5.907,5.245
		c-2.14,1.372-4.509,2.196-7.103,2.472c-2.599,0.275-4.914-0.643-6.947-2.759c-2.037-2.112-2.875-4.67-2.512-7.666
		c0.546-5.934,1.76-11.749,3.634-17.449c1.875-5.694,3.978-11.42,6.313-17.177c0.878-2.59,1.976-6.113,3.296-10.576
		c1.318-4.459,2.477-8.099,3.472-10.92c-2.021,0.28-4.055,0.946-6.106,2.002c-2.054,1.059-3.545,2.793-4.479,5.208
		c-0.764,2.938-1.938,6.82-3.519,11.655c-1.581,4.834-3.279,9.9-5.093,15.193c-1.815,5.299-3.614,10.348-5.395,15.149
		c-1.784,4.806-3.26,8.647-4.426,11.521l-2.365,5.955c-1.633,3.224-3.719,5.777-6.266,7.664c-2.545,1.892-4.973,3.405-7.287,4.546
		c-2.83,1.311-5.716,2.161-8.66,2.55c-0.52,0.171-0.92,0.4-1.214,0.686c0.765-2.359,1.554-4.631,2.37-6.819
		c0.821-2.185,1.638-4.371,2.454-6.559c0.883-3.167,2.13-7.411,3.74-12.736c1.61-5.32,3.355-10.834,5.229-16.533
		c1.875-5.694,3.676-11.177,5.402-16.445c1.728-5.265,3.088-9.595,4.087-12.993c-2.536-0.126-4.896-0.455-7.086-0.987
		c-2.188-0.528-4.112-1.862-5.772-4.007c-0.576-0.576-1.077-1.229-1.504-1.953c-0.43-0.723-0.613-1.57-0.549-2.555
		c0-0.576,0.336-1.306,1.005-2.199c0.668-0.889,1.262-1.422,1.781-1.592c10.16-2.941,20.209-6.234,30.143-9.877
		c9.933-3.636,19.787-8.111,29.556-13.426c7.456-4.169,14.346-3.932,20.664,0.711c-0.467,0.922-0.889,1.829-1.268,2.718
		c-0.382,0.894-0.86,1.626-1.438,2.198c-2.55,2.755-4.51,5.555-5.879,8.4c-1.369,2.849-2.554,5.971-3.551,9.364
		c-0.763,2.363-1.715,5.166-2.854,8.417c-1.141,3.251-2.354,6.575-3.639,9.969c-1.288,3.398-2.515,6.679-3.682,9.838
		c-1.17,3.169-2.163,5.846-2.98,8.027c-0.235,0.465-0.484,1.022-0.745,1.684c-0.263,0.662-0.166,1.111,0.297,1.342
		c0.285,0.293,1.893-0.81,4.815-3.305c2.926-2.491,6.295-5.517,10.12-9.072c3.822-3.555,7.775-7.295,11.861-11.225
		c4.082-3.927,7.46-7.381,10.127-10.367L1983.593,746.02z"/>
	<path fill="#010101" d="M1995.141,787.412c-7.385,0.887-13.891-0.815-19.518-5.113c-0.574-0.576-1.175-1.244-1.805-1.998
		c-0.633-0.752-1.262-1.504-1.892-2.259c-1.65-3.87-1.612-8.725,0.117-14.57c1.729-5.841,4.108-11.751,7.139-17.734
		c3.027-5.979,6.24-11.541,9.64-16.683c3.396-5.142,5.883-8.834,7.45-11.074c0.869-1.436,2.395-3.23,4.567-5.381
		c2.173-2.151,4.689-4.27,7.555-6.361c2.863-2.09,6.044-4.089,9.543-6.004c3.498-1.91,7.033-3.262,10.613-4.054
		c2.77-0.332,4.781,0.402,6.043,2.193c1.258,1.795,2.721,3.474,4.385,5.038c1.607,1.393,4.471,1.654,8.6,0.778
		c4.125-0.872,8.426-2.087,12.902-3.653c4.475-1.561,8.503-3.168,12.088-4.823c3.583-1.651,5.634-2.566,6.154-2.737
		c-3.935,2.634-7.639,5.094-11.106,7.381c-3.009,1.947-5.929,3.863-8.764,5.749c-2.833,1.891-4.888,3.233-6.159,4.033
		c-0.35,0.114-0.564,0.473-0.654,1.077s-0.167,1.111-0.225,1.513c-1.645,6.104-3.779,12.173-6.405,18.212
		c-2.625,6.041-5.405,11.605-8.343,16.689c-2.936,5.092-5.814,9.632-8.631,13.62c-2.818,3.995-5.152,6.967-7.006,8.914
		c-1.681,1.896-3.263,3.804-4.741,5.728c-1.483,1.924-3.206,3.689-5.173,5.291c-2.258,1.891-4.761,3.336-7.502,4.328
		C2001.27,786.51,1998.312,787.143,1995.141,787.412z M2027.16,714.766c-2.245-0.991-4.897-0.455-7.964,1.602
		c-3.066,2.062-6.194,4.957-9.384,8.687c-3.191,3.734-6.21,7.982-9.058,12.752c-2.851,4.773-5.136,9.357-6.858,13.757
		c-1.723,4.405-2.727,8.23-2.999,11.485c-0.276,3.257,0.679,5.296,2.866,6.112c1.093,0.41,3.057-0.471,5.894-2.65
		c2.835-2.176,5.905-5.101,9.21-8.774c3.303-3.672,6.566-7.763,9.791-12.272c3.222-4.509,5.883-8.834,7.979-12.974
		c2.096-4.14,3.325-7.852,3.688-11.136C2030.688,718.069,2029.632,715.875,2027.16,714.766z"/>
</g>
<g enable-background="new    ">
	<path fill="#EC3292" d="M1766.637,716.347l0.762,3.203l-0.174,0.345c-0.262,5.652-1.338,10.848-3.236,15.594
		c-1.896,4.748-4.04,9.335-6.426,13.759c-0.523,0.747-1.133,1.81-1.832,3.19c-0.934,1.843-2.139,3.434-3.613,4.781
		c-1.479,1.347-2.994,2.275-4.554,2.786c-1.614,0.341-3.078,1.009-4.377,2.01c-1.304,1.003-2.591,2.193-3.866,3.569
		c-0.925,0.689-1.837,1.42-2.734,2.19c-0.897,0.775-1.898,1.535-2.996,2.277c-2.72,1.66-5.61,3.952-8.682,6.873
		c-1.162,1.149-2.289,2.238-3.389,3.27c-1.1,1.035-2.288,1.95-3.56,2.748c-3.703,2.753-7.511,5.482-11.413,8.2
		c-3.906,2.72-7.737,5.368-11.498,7.94c-1.1,0.747-2.156,1.476-3.168,2.19c-1.014,0.718-2.155,1.475-3.427,2.273l6.899,3.494
		c0.516,0.406,1.091,0.843,1.724,1.305c0.63,0.469,1.203,0.901,1.723,1.307c0.572,0.581,1.375,1.275,2.411,2.088l7.755,5.228
		c1.15,0.585,2.241,1.28,3.275,2.092c1.031,0.812,2.123,1.512,3.275,2.092c1.263,0.931,2.496,1.772,3.706,2.526
		c1.205,0.756,2.439,1.602,3.705,2.527c0.747,0.523,2.886,1.644,6.425,3.361c3.535,1.719,7.362,3.587,11.473,5.593
		c4.112,2.012,7.907,3.934,11.386,5.766c3.479,1.836,5.592,3.015,6.337,3.534c0.69,0.35,1.436,0.73,2.243,1.136
		c0.804,0.411,1.582,0.875,2.328,1.396c0.746,0.523,1.534,1.035,2.369,1.525c0.832,0.495,1.71,0.977,2.631,1.439
		c0.746,0.521,1.748,1.536,3.011,3.042c0.171,0.521,0.481,0.896,0.945,1.13c0.056,0.17,0.14,0.287,0.258,0.347
		c0.113,0.057,0.2,0.172,0.258,0.347l0.86,0.869c1.38,0.699,2.745,1.353,4.097,1.967c1.351,0.609,2.628,1.297,3.838,2.051
		c1.551,0.645,3.073,1.341,4.572,2.1c1.493,0.756,3.046,1.543,4.657,2.358l10.696,5.416c0.745,0.52,1.505,0.945,2.284,1.267
		c0.775,0.32,1.539,0.74,2.285,1.265l1.035,0.524l0.148,4.843l-1.904,0.337l1.985,0.787l0.17,0.52
		c0.227,0.69,0.336,1.329,0.336,1.904c-0.062,0.403-0.123,0.806-0.179,1.21c-0.062,0.403-0.123,0.805-0.179,1.21l-0.18,1.209
		l-0.269,1.815l-1.47-0.095c-0.809-0.121-1.328-0.238-1.555-0.354c-0.349,0.114-0.477-0.275-0.383-1.169
		c0.089-0.894,0.269-1.815,0.532-2.765c0.265-0.949,0.439-1.871,0.533-2.765c0.09-0.892,0.047-1.31-0.123-1.254l-0.52,0.171
		l-1.039,0.34c-0.176,0.058-0.322,0.199-0.435,0.43l-1.3,0.426c-0.926,0.686-1.738,1.146-2.429,1.371l-1.039,0.341
		c-0.751,0.053-1.441-0.009-2.075-0.183c-0.633-0.179-1.266-0.354-1.899-0.528c-0.463-0.236-0.778-0.321-0.949-0.265
		c-0.864-0.293-1.716-0.545-2.547-0.748c-0.837-0.207-1.687-0.454-2.548-0.748c-3.224-1.057-6.303-1.963-9.238-2.728
		c-0.809-0.123-1.572-0.255-2.289-0.401c-0.725-0.15-1.572-0.254-2.55-0.315c-1.384-0.122-2.725-0.259-4.02-0.41
		c-1.299-0.15-2.521-0.518-3.669-1.1c-3.687-1.287-7.222-2.719-10.614-4.291c-3.394-1.576-6.815-3.234-10.265-4.981
		c-2.936-1.34-7.133-3.323-12.596-5.944c-5.463-2.62-11.157-5.358-17.079-8.215c-5.926-2.852-11.547-5.519-16.865-7.999
		c-5.319-2.473-9.16-4.38-11.515-5.722c-1.38-0.699-2.703-1.512-3.965-2.441c-1.266-0.926-2.529-1.856-3.791-2.787
		c-0.463-0.23-0.905-0.566-1.336-1.001c-0.43-0.434-0.875-0.765-1.335-1.002c-9.536-6.847-18.592-11.36-27.169-13.54
		c-0.406-0.057-1.26,0.412-2.56,1.413c-1.303,1.003-2.604,2.148-3.908,3.439c-1.304,1.29-2.45,2.483-3.435,3.57
		c-0.986,1.092-1.393,1.608-1.219,1.551c-1.107,2.477-2.128,4.92-3.063,7.335c-0.934,2.418-1.67,4.863-2.198,7.339
		c-0.772,4.092-1.845,8.135-3.219,12.133c-1.377,4.003-2.794,7.87-4.253,11.609c-1.642,4.953-3.346,8.82-5.118,11.605
		c-1.774,2.788-3.487,5.314-5.141,7.582c-1.656,2.27-3.123,4.67-4.403,7.198c-1.282,2.534-2.194,5.899-2.731,10.104
		c-1.228,3.28-2.602,6.414-4.112,9.404c-1.455,2.585-2.938,5.086-4.449,7.501c-1.512,2.41-2.994,4.911-4.448,7.5
		c-0.235,0.459-0.553,0.946-0.958,1.465c-0.407,0.516-0.728,1.004-0.959,1.465c-0.464,0.917-1.044,1.494-1.738,1.722
		c-0.114,0.226-0.26,0.373-0.435,0.43l-0.26,0.085c-0.232,0.458-0.435,0.719-0.609,0.775c-1.219,1.55-2.234,3.129-3.05,4.741
		c-0.818,2.183-1.649,4.325-2.497,6.43c-0.846,2.098-1.677,4.24-2.498,6.429c-1.342,3.507-2.656,6.959-3.943,10.357
		c-1.285,3.393-2.686,6.873-4.204,10.44c-0.644,1.552-1.457,3.019-2.444,4.399c-0.987,1.375-2.029,2.724-3.133,4.047l-2.353,3.36
		l-0.35,0.69l-0.52,0.17c-0.864,0.283-1.498,0.393-1.904,0.336l-1.818,0.597c-0.865,0.283-1.442,0.567-1.733,0.855l-1.04,0.341
		c-1.04,0.341-1.729,0.279-2.074-0.184c-0.805-0.697-1.23-1.71-1.281-3.033l-0.171-0.52l-0.34-1.039l0.608-0.775
		c0.235-0.463,0.424-0.764,0.567-0.905c0.145-0.146,0.248-0.419,0.307-0.819c1.048-1.494,1.742-2.586,2.092-3.275
		c0.179-0.635,0.412-1.24,0.701-1.812c0.292-0.576,0.525-1.18,0.7-1.812c0.354-1.267,0.704-2.244,1.053-2.934
		c0.585-1.154,1.106-2.332,1.575-3.537c0.467-1.21,0.993-2.391,1.574-3.538c1.283-2.533,2.434-5.02,3.454-7.462
		c1.022-2.449,1.771-4.997,2.244-7.642c0.593-3.459,1.419-6.797,2.472-10.02c1.057-3.224,2.138-6.36,3.247-9.408
		c0.704-1.958,1.376-3.858,2.019-5.698c0.646-1.843,1.229-3.711,1.758-5.611c1.996-6.791,3.947-13.279,5.85-19.469
		c1.902-6.186,3.471-10.921,4.698-14.202c1.638-4.948,3.378-10.026,5.224-15.235c1.841-5.207,3.641-10.402,5.396-15.581
		c1.11-3.048,2.222-5.952,3.331-8.716c1.11-2.761,2.245-5.579,3.415-8.457c0.874-2.014,1.693-4.054,2.453-6.128
		c0.76-2.069,1.547-4.197,2.366-6.387c1.168-2.873,2.163-5.695,2.983-8.46c0.175-0.633,0.381-1.32,0.615-2.071
		c0.232-0.747,0.438-1.438,0.616-2.073c0.232-0.457,0.379-0.889,0.439-1.294c0.058-0.401,0.204-0.832,0.438-1.295
		c0.465-0.917,0.861-1.767,1.181-2.545c0.322-0.776,0.714-1.624,1.181-2.546c1.629-3.218,3.189-6.512,4.677-9.877
		c1.487-3.364,3.044-6.653,4.677-9.876c0.349-0.691,0.756-1.206,1.219-1.552c0.463-0.341,0.926-0.685,1.389-1.029
		c0.17-0.057,0.331-0.154,0.477-0.301c0.143-0.141,0.303-0.243,0.477-0.3l0.35-0.69l1.842-4.919
		c0.057-0.401,0.321-1.063,0.788-1.985l0.614-1.64l1.295,0.438c0.401,0.062,0.659,0.121,0.776,0.177
		c0.115,0.062,0.372,0.12,0.778,0.177c1.379,0.123,2.764,0.534,4.144,1.232c0.69,0.35,1.19,0.859,1.506,1.521
		c0.312,0.666,0.585,1.346,0.811,2.036c0.058,0.175,0.126,0.246,0.216,0.217c0.085-0.027,0.159,0.047,0.215,0.218
		c0.114,0.35,0.183,0.709,0.211,1.083c0.024,0.377,0.097,0.735,0.21,1.081l-0.26,0.085c0.573,0.582,1.091,1.131,1.548,1.651
		c0.46,0.523,0.944,0.985,1.464,1.391c0.63,0.756,1.375,1.563,2.235,2.433s1.632,1.768,2.321,2.692
		c0.572,0.581,0.886,1.247,0.94,1.994c0.054,0.751,0.195,1.473,0.422,2.163c-0.117,0.232-0.117,0.52-0.005,0.865
		c0.398,1.214,1.084,2.141,2.062,2.777c1.031,0.813,1.896,1.105,2.59,0.878l0.175-0.345c1.039-0.341,2.368-0.966,3.987-1.882
		c2.311-1.141,4.696-2.354,7.152-3.639c2.457-1.282,4.781-2.669,6.982-4.159c1.097-0.741,2.226-1.399,3.383-1.971
		c1.153-0.568,2.282-1.226,3.382-1.972c4.682-2.686,9.268-5.528,13.75-8.535c4.483-3.002,8.752-6.51,12.808-10.527
		c2.552-2.751,5.189-5.679,7.914-8.779c2.727-3.097,5.132-6.431,7.229-9.995c3.896-6.838,4.626-13.983,2.185-21.435
		c-0.515-0.981-1.491-1.764-2.929-2.35c-1.439-0.58-3.054-0.675-4.841-0.283c-1.444,0.284-2.772,0.621-3.983,1.018
		c-1.213,0.397-2.513,0.823-3.897,1.277c-11.433,3.746-22.733,9.368-33.896,16.862c-5.206,3.433-10.354,7.039-15.447,10.816
		c-3.532,2.696-7.175,5.328-10.937,7.899c-3.759,2.577-7.463,5.036-11.105,7.382c-2.488,1.777-4.718,3.466-6.685,5.067
		c-1.969,1.607-3.993,3.18-6.077,4.726c-2.083,1.545-4.338,2.717-6.763,3.512c-0.349,0.113-0.752,0.201-1.212,0.252
		c-0.462,0.057-0.866,0.14-1.212,0.253c-0.52,0.171-1.026,0.53-1.519,1.074c-0.495,0.548-1.116,1.134-1.868,1.763
		c-0.405,0.52-1.189,1.352-2.347,2.495c-1.219,0.976-2.348,1.921-3.388,2.837c-1.044,0.918-2.2,1.777-3.472,2.576
		c-2.258,1.892-4.517,3.782-6.773,5.673c-2.259,1.892-4.487,3.871-6.689,5.933c-0.698,0.805-1.423,1.666-2.175,2.583
		c-0.755,0.921-1.452,1.87-2.09,2.844c-0.755,1.208-1.539,2.328-2.353,3.359c-0.812,1.035-1.827,2.038-3.041,3.012
		c-1.969,1.606-4.082,3.063-6.335,4.378c-2.258,1.315-4.567,2.17-6.931,2.559c-1.215,0.398-2.411,0.407-3.589,0.024
		c-1.181-0.378-2.431-0.831-3.755-1.358c-0.462-0.231-0.965-0.448-1.51-0.657c-0.548-0.202-1.137-0.392-1.77-0.57l-2.85-0.794
		l2.262-2.754c0.289-0.285,0.537-0.559,0.739-0.818c0.204-0.256,0.447-0.529,0.739-0.817c0.926-0.687,1.768-1.632,2.521-2.841
		c5.692-8.385,11.728-16.023,18.104-22.91c6.378-6.883,12.636-13.249,18.775-19.102c2.607-2.581,5.357-5.016,8.252-7.309
		c2.893-2.287,5.702-4.553,8.423-6.788c2.603-2.005,5.121-3.979,7.554-5.928c2.428-1.947,4.805-4.066,7.123-6.362
		c5.792-5.158,11.781-9.711,17.97-13.658c6.189-3.943,12.345-7.688,18.476-11.234c1.966-1.026,3.902-2.141,5.811-3.343
		c1.908-1.2,3.847-2.312,5.811-3.343c0.752-0.629,1.561-1.086,2.429-1.371c0.864-0.283,1.729-0.566,2.599-0.852l3.118-1.021
		l4.157-1.362l0.436-0.431c0.17-0.055,0.286-0.139,0.347-0.257c0.058-0.114,0.173-0.2,0.347-0.258l0.175-0.345l1.56-0.511
		l0.345,0.175l0.69,0.349c0.17-0.056,0.289,0.004,0.345,0.175c1.962-0.449,3.793-0.856,5.497-1.227
		c1.701-0.363,3.447-0.743,5.238-1.141c3.402-0.728,6.854-1.477,10.345-2.238c3.492-0.758,6.967-1.42,10.43-1.979
		c12.749-2.064,23.197,1.13,31.341,9.585c1.319,1.104,2.365,2.391,3.137,3.863c0.771,1.475,1.582,2.936,2.441,4.381
		c0.456,0.812,0.826,1.504,1.114,2.08c0.285,0.582,0.628,1.188,1.028,1.821L1766.637,716.347z"/>
	<path fill="#EC3292" d="M1776.086,830.367c1.324,0.529,3.846,0.035,7.573-1.474c3.724-1.509,7.987-3.575,12.786-6.205
		c4.797-2.624,9.885-5.541,15.264-8.742c5.377-3.201,10.482-6.214,15.31-9.045c4.828-2.827,9.078-5.228,12.747-7.199
		c3.672-1.967,6.227-3.092,7.67-3.377l-0.174,0.345c-0.58,0.578-2.229,1.98-4.95,4.212c-2.72,2.236-5.935,4.873-9.64,7.907
		c-3.706,3.041-7.728,6.273-12.068,9.71c-4.342,3.437-8.425,6.646-12.242,9.622c-3.82,2.979-7.09,5.588-9.811,7.819
		c-2.721,2.235-4.401,3.556-5.036,3.952c-2.258,1.891-4.761,3.336-7.502,4.329c-2.743,0.998-5.674,1.716-8.788,2.159
		c-7.441,0.713-13.947-0.99-19.517-5.113c-0.575-0.576-1.176-1.242-1.806-1.999c-0.633-0.749-1.262-1.502-1.891-2.257
		c-1.65-3.87-1.629-8.77,0.074-14.701c1.7-5.926,4.078-11.84,7.139-17.733c3.055-5.894,6.282-11.411,9.682-16.554
		c3.396-5.141,5.854-8.919,7.365-11.334c0.869-1.436,2.395-3.229,4.567-5.381c2.173-2.15,4.688-4.271,7.555-6.361
		c2.863-2.089,6.058-4.043,9.586-5.875c3.524-1.823,7.075-3.131,10.655-3.923c2.714-0.502,4.696,0.144,5.957,1.933
		c1.259,1.796,2.722,3.475,4.386,5.039c1.03,0.812,2.991,0.938,5.878,0.375c1.669,0.415,3.224,1.058,4.659,1.927
		c1.438,0.873,2.496,2.348,3.177,4.426c-0.637,0.402-0.929,1.267-0.878,2.59c-0.528,1.9-0.927,3.469-1.19,4.706
		c-0.27,1.24-0.531,2.332-0.795,3.282c-0.265,0.95-0.645,1.986-1.141,3.107c-0.494,1.124-1.125,2.576-1.881,4.357
		c-1.454,2.589-4.551,4.993-9.29,7.216c-4.737,2.228-9.592,4.25-14.559,6.066c-5.834,2.104-12.358,4.147-19.573,6.126l-0.26,0.085
		c-1.049,2.07-2.155,4.402-3.322,6.987c-1.166,2.591-2.16,5.124-2.979,7.595c-0.82,2.477-1.509,4.767-2.067,6.864
		C1776.196,827.935,1775.973,829.447,1776.086,830.367z M1799.873,794.947c7.032-11.318,10.157-19.056,9.371-23.213
		c-3.358,2.638-7.011,6.568-10.956,11.791c-3.948,5.229-7.492,10.656-10.632,16.29c1.673-0.163,3.545-0.73,5.629-1.701
		C1795.363,797.145,1797.56,796.093,1799.873,794.947z"/>
	<path fill="#EC3292" d="M1875.426,748.033c-0.763,2.363-1.86,5.889-3.297,10.576c-1.438,4.693-2.875,9.529-4.311,14.505
		c-1.439,4.981-2.745,9.488-3.917,13.514c-1.175,4.032-1.878,6.563-2.114,7.6c3.596-4.245,6.685-7.991,9.268-11.238
		c2.578-3.242,5.436-6.817,8.571-10.723c3.132-3.903,6.091-7.606,8.877-11.109c2.782-3.501,5.265-6.617,7.44-9.345
		c2.174-2.727,3.609-4.491,4.309-5.295c-0.236,1.038-1.371,3.281-3.407,6.727c-2.034,3.45-4.509,7.619-7.413,12.5
		c-2.909,4.888-6.062,10.044-9.462,15.475c-3.4,5.43-6.67,10.531-9.806,15.299c-3.141,4.77-5.827,8.865-8.062,12.281
		c-2.237,3.422-3.62,5.502-4.14,6.249l-1.572,3.104c-0.234,0.464-0.757,1.066-1.565,1.809c-0.812,0.747-1.823,1.461-3.038,2.146
		c-1.214,0.686-2.4,1.317-3.555,1.885c-1.158,0.568-2.14,0.796-2.943,0.677c-0.982-0.061-1.887-0.339-2.72-0.835
		c-0.831-0.492-1.736-1.06-2.716-1.7c-3.846-2.382-5.1-5.905-3.75-10.568l26.425-94.987c-4.157,1.362-7.535,2.47-10.134,3.321
		s-4.925,1.52-6.972,1.996c-2.05,0.482-4.011,0.934-5.887,1.354c-1.875,0.425-3.942,1.004-6.191,1.741
		c-0.869,0.285-1.734,0.28-2.595-0.014c-0.864-0.291-1.7-0.494-2.504-0.618c-1.266-0.35-2.578-0.688-3.93-1.014
		c-1.355-0.32-2.431-0.832-3.235-1.53c-2.354-1.912-3.988-3.967-4.897-6.164c-0.17-0.52,0.036-1.207,0.615-2.072
		c0.582-0.859,1.217-1.405,1.912-1.633c1.328-0.625,4.174-1.751,8.534-3.372c4.361-1.618,9.152-3.382,14.382-5.288
		c5.226-1.902,10.381-3.734,15.463-5.5c5.08-1.759,8.952-2.978,11.606-3.659c1.935-6.964,3.901-13.696,5.896-20.205
		c1.992-6.502,3.752-12.258,5.276-17.267c1.525-5.005,3.283-10.617,5.273-16.836c0.407-0.515,0.87-1.147,1.394-1.895
		c0.521-0.746,0.984-1.087,1.389-1.031c4.324-0.266,8.157,0.016,11.497,0.837c2.821,0.42,4.561,1.625,5.213,3.615
		c0.653,1.993,0.281,4.368-1.117,7.128c-0.292,0.864-0.837,2.576-1.626,5.137c-0.793,2.562-1.613,5.326-2.464,8.289
		c-0.852,2.969-1.7,5.786-2.551,8.461c-0.848,2.68-1.363,4.619-1.543,5.829c-0.121,0.81-0.324,1.645-0.617,2.505
		c-0.122,0.809-0.341,1.745-0.663,2.808c-0.324,1.068-0.663,2.231-1.013,3.497l16.895-6.399l5.288-2.308
		c0.52-0.17,1.079-0.354,1.688-0.554c0.605-0.198,1.137-0.18,1.6,0.052c2.359,0.764,4.733,1.424,7.124,1.981
		c2.387,0.562,4.704,1.336,6.948,2.326c0.516,0.407,1.146,1.163,1.892,2.258c0.743,1.101,1.083,2.142,1.021,3.118
		c-0.064,0.984-0.3,2.019-0.708,3.109c-0.409,1.098-1.018,1.872-1.827,2.326c-1.851,0.799-3.497,1.482-4.939,2.051
		c-1.444,0.571-3.671,1.395-6.671,2.473c-3.004,1.083-7.178,2.546-12.518,4.391c-5.343,1.849-12.633,4.477-21.875,7.887
		c-2.293,8.232-4.522,16.206-6.693,23.919C1878.092,739.346,1876.479,744.811,1875.426,748.033z"/>
	<path fill="#EC3292" d="M1983.593,733.02c0.346-0.113,0.808-0.311,1.387-0.599c0.577-0.284,1.241-0.739,1.996-1.374
		c-7.603,9.591-14.65,18.519-21.149,26.785c-2.672,3.564-5.413,7.053-8.225,10.466c-2.814,3.417-5.367,6.604-7.658,9.56
		c-2.295,2.959-4.325,5.544-6.093,7.751c-1.771,2.212-3.004,3.718-3.698,4.521c-1.799,2.127-3.767,3.874-5.907,5.245
		c-2.14,1.372-4.509,2.196-7.103,2.472c-2.599,0.275-4.914-0.643-6.947-2.759c-2.037-2.112-2.875-4.67-2.512-7.666
		c0.546-5.934,1.76-11.749,3.634-17.449c1.875-5.694,3.978-11.42,6.313-17.177c0.878-2.59,1.976-6.113,3.296-10.576
		c1.318-4.459,2.477-8.099,3.472-10.92c-2.021,0.28-4.055,0.946-6.106,2.002c-2.054,1.059-3.545,2.793-4.479,5.208
		c-0.764,2.938-1.938,6.82-3.519,11.655c-1.581,4.834-3.279,9.9-5.093,15.193c-1.815,5.299-3.614,10.348-5.395,15.149
		c-1.784,4.806-3.26,8.647-4.426,11.521l-2.365,5.955c-1.633,3.224-3.719,5.777-6.266,7.664c-2.545,1.892-4.973,3.405-7.287,4.546
		c-2.83,1.311-5.716,2.161-8.66,2.55c-0.52,0.171-0.92,0.4-1.214,0.686c0.765-2.359,1.554-4.631,2.37-6.819
		c0.821-2.185,1.638-4.371,2.454-6.559c0.883-3.167,2.13-7.411,3.74-12.736c1.61-5.32,3.355-10.834,5.229-16.533
		c1.875-5.694,3.676-11.177,5.402-16.445c1.728-5.265,3.088-9.595,4.087-12.993c-2.536-0.126-4.896-0.455-7.086-0.987
		c-2.188-0.528-4.112-1.862-5.772-4.007c-0.576-0.576-1.077-1.229-1.504-1.953c-0.43-0.723-0.613-1.57-0.549-2.555
		c0-0.576,0.336-1.306,1.005-2.199c0.668-0.889,1.262-1.422,1.781-1.592c10.16-2.941,20.209-6.234,30.143-9.877
		c9.933-3.636,19.787-8.111,29.556-13.426c7.456-4.169,14.346-3.932,20.664,0.711c-0.467,0.922-0.889,1.829-1.268,2.718
		c-0.382,0.894-0.86,1.626-1.438,2.198c-2.55,2.755-4.51,5.555-5.879,8.4c-1.369,2.849-2.554,5.971-3.551,9.364
		c-0.763,2.363-1.715,5.166-2.854,8.417c-1.141,3.251-2.354,6.575-3.639,9.969c-1.288,3.398-2.515,6.679-3.682,9.838
		c-1.17,3.169-2.163,5.846-2.98,8.027c-0.235,0.465-0.484,1.022-0.745,1.684c-0.263,0.662-0.166,1.111,0.297,1.342
		c0.285,0.293,1.893-0.81,4.815-3.305c2.926-2.491,6.295-5.517,10.12-9.072c3.822-3.555,7.775-7.295,11.861-11.225
		c4.082-3.927,7.46-7.381,10.127-10.367L1983.593,733.02z"/>
	<path fill="#EC3292" d="M1995.141,774.412c-7.385,0.887-13.891-0.815-19.518-5.113c-0.574-0.576-1.175-1.244-1.805-1.998
		c-0.633-0.752-1.262-1.504-1.892-2.259c-1.65-3.87-1.612-8.725,0.117-14.57c1.729-5.841,4.108-11.751,7.139-17.734
		c3.027-5.979,6.24-11.541,9.64-16.683c3.396-5.142,5.883-8.834,7.45-11.074c0.869-1.436,2.395-3.23,4.567-5.381
		c2.173-2.151,4.689-4.27,7.555-6.361c2.863-2.09,6.044-4.089,9.543-6.004c3.498-1.91,7.033-3.262,10.613-4.054
		c2.77-0.332,4.781,0.402,6.043,2.193c1.258,1.795,2.721,3.474,4.385,5.038c1.607,1.393,4.471,1.654,8.6,0.778
		c4.125-0.872,8.426-2.087,12.902-3.653c4.475-1.561,8.503-3.168,12.088-4.823c3.583-1.651,5.634-2.566,6.154-2.737
		c-3.935,2.634-7.639,5.094-11.106,7.381c-3.009,1.947-5.929,3.863-8.764,5.749c-2.833,1.891-4.888,3.233-6.159,4.033
		c-0.35,0.114-0.564,0.473-0.654,1.077s-0.167,1.111-0.225,1.513c-1.645,6.104-3.779,12.173-6.405,18.212
		c-2.625,6.041-5.405,11.605-8.343,16.689c-2.936,5.092-5.814,9.632-8.631,13.62c-2.818,3.995-5.152,6.967-7.006,8.914
		c-1.681,1.896-3.263,3.804-4.741,5.728c-1.483,1.924-3.206,3.689-5.173,5.291c-2.258,1.891-4.761,3.336-7.502,4.328
		C2001.27,773.51,1998.312,774.143,1995.141,774.412z M2027.16,701.766c-2.245-0.991-4.897-0.455-7.964,1.602
		c-3.066,2.062-6.194,4.957-9.384,8.687c-3.191,3.734-6.21,7.982-9.058,12.752c-2.851,4.773-5.136,9.357-6.858,13.757
		c-1.723,4.405-2.727,8.23-2.999,11.485c-0.276,3.257,0.679,5.296,2.866,6.112c1.093,0.41,3.057-0.471,5.894-2.65
		c2.835-2.176,5.905-5.101,9.21-8.774c3.303-3.672,6.566-7.763,9.791-12.272c3.222-4.509,5.883-8.834,7.979-12.974
		c2.096-4.14,3.325-7.852,3.688-11.136C2030.688,705.069,2029.632,702.875,2027.16,701.766z"/>
</g>
<g enable-background="new    ">
	<path fill="#933393" d="M698.727,798.663c0.875-0.328,1.75,0.219,2.078,0.984c2.516,6.78,6.78,12.576,16.186,12.357
		c15.201-0.328,15.966-14.545,15.966-19.575v-45.712c0-0.875,0.766-1.641,1.641-1.641h8.092c0.875,0,1.641,0.766,1.641,1.641v45.712
		c0,12.357-5.249,29.855-27.34,29.855c-15.857,0-22.528-8.421-26.028-19.028c-0.219-0.875,0.219-1.75,1.094-2.078L698.727,798.663z"
		/>
	<path fill="#933393" d="M802.729,801.397h-28.215l-7.437,18.591c-0.437,0.984-1.312,1.531-2.296,1.531h-8.967
		c-0.766,0-1.312-0.766-0.984-1.531l31.605-74.255c0.438-0.875,1.203-1.422,2.187-1.422c0.875,0,1.75,0.547,2.078,1.422
		l31.714,74.255c0.328,0.766-0.219,1.531-0.984,1.531h-8.968c-0.984,0-1.859-0.547-2.296-1.531L802.729,801.397z M778.451,791.664
		h20.341l-10.17-25.262L778.451,791.664z"/>
	<path fill="#933393" d="M888.028,746.718c0-0.875,0.766-1.641,1.641-1.641h7.983c0.875,0,1.64,0.766,1.64,1.641v74.474
		c0,0.547-0.438,0.984-0.984,0.984c-0.656,0-1.203-0.219-1.64-0.766l-48.009-51.509l-0.109,50.087c0,0.875-0.766,1.641-1.641,1.641
		h-7.983c-0.875,0-1.64-0.766-1.64-1.641v-74.583c0-0.656,0.438-1.094,0.984-1.094c0.656,0,1.312,0.328,1.75,0.766l48.009,51.181
		V746.718z"/>
	<path fill="#933393" d="M975.515,819.988c0,0.875-0.766,1.641-1.641,1.641h-7.655c-0.875,0-1.64-0.766-1.64-1.641v-55.883
		l-11.045,6.671c-0.766,0.547-1.859,0.328-2.406-0.438l-2.734-4.046c-0.546-0.766-0.437-1.75,0.328-2.297l19.138-15.857
		c0.875-0.765,1.859-1.093,2.953-1.093h3.062c0.875,0,1.641,0.766,1.641,1.64V819.988z"/>
	<path fill="#933393" d="M1006.681,817.474c-0.438-0.766-0.219-1.75,0.547-2.297c12.576-7.765,19.356-17.061,21.872-23.95
		c-2.296,2.297-8.202,4.156-11.811,4.156c-20.778,0-25.372-15.42-25.372-24.497c0-7.327,4.812-23.84,25.372-23.84
		s25.262,17.388,25.262,25.043c0.109,27.777-15.967,42.213-30.402,50.524c-0.765,0.438-1.859,0.219-2.296-0.547L1006.681,817.474z
		 M1002.525,771.542c0,7.437,4.812,14.873,14.764,14.873c9.733,0,14.436-7.108,14.654-14.873c0-7.546-4.921-15.092-14.654-15.092
		S1002.525,763.996,1002.525,771.542z"/>
	<path fill="#933393" d="M1118.882,785.54c0.875,0,1.641,0.766,1.641,1.641v5.796c0,0.875-0.766,1.641-1.641,1.641h-26.465
		c-0.875,0-1.64-0.766-1.64-1.641v-5.796c0-0.875,0.765-1.641,1.64-1.641H1118.882z"/>
	<path fill="#933393" d="M1135.176,759.294c-0.656-0.656-0.656-1.75,0-2.406c6.999-7.108,14.982-10.17,22.419-10.17
		c13.451,0,23.512,7.655,22.31,23.074c-0.438,5.469-4.812,12.687-9.077,18.154l-19.138,23.84h24.497c0.875,0,1.64,0.766,1.64,1.641
		v6.562c0,0.875-0.766,1.641-1.64,1.641h-39.479c-0.875,0-1.641-0.766-1.641-1.641v-0.766c0-1.094,0.328-2.077,0.984-2.952
		l26.902-34.448c4.921-5.796,6.234-10.39,6.453-12.468c1.093-5.796-0.984-13.561-11.702-13.561c-5.578,0-10.827,2.734-16.185,7.655
		c-0.656,0.547-1.75,0.547-2.297-0.109L1135.176,759.294z"/>
	<path fill="#933393" d="M1219.054,819.988c0,0.875-0.766,1.641-1.641,1.641h-7.655c-0.875,0-1.64-0.766-1.64-1.641v-55.883
		l-11.045,6.671c-0.766,0.547-1.859,0.328-2.406-0.438l-2.734-4.046c-0.546-0.766-0.437-1.75,0.328-2.297l19.138-15.857
		c0.875-0.765,1.859-1.093,2.953-1.093h3.062c0.875,0,1.641,0.766,1.641,1.64V819.988z"/>
	<path fill="#933393" d="M1239.613,837.377c-0.766-0.438-1.094-1.422-0.656-2.188c2.296-4.374,4.593-9.843,5.14-12.904
		c-3.718-0.328-6.452-3.5-6.452-7.218c0-4.046,3.062-7.108,7.108-7.108c5.906,0,7.983,4.046,7.983,7.983
		c0,6.999-5.14,16.622-8.202,21.872c-0.547,0.766-1.531,1.094-2.406,0.766L1239.613,837.377z"/>
	<path fill="#933393" d="M1300.195,759.294c-0.656-0.656-0.656-1.75,0-2.406c6.999-7.108,14.982-10.17,22.419-10.17
		c13.451,0,23.513,7.655,22.31,23.074c-0.438,5.469-4.812,12.687-9.077,18.154l-19.138,23.84h24.496
		c0.875,0,1.641,0.766,1.641,1.641v6.562c0,0.875-0.766,1.641-1.641,1.641h-39.479c-0.875,0-1.641-0.766-1.641-1.641v-0.766
		c0-1.094,0.328-2.077,0.984-2.952l26.902-34.448c4.921-5.796,6.233-10.39,6.452-12.468c1.094-5.796-0.984-13.561-11.701-13.561
		c-5.577,0-10.827,2.734-16.186,7.655c-0.656,0.547-1.749,0.547-2.296-0.109L1300.195,759.294z"/>
	<path fill="#933393" d="M1414.803,784.665c0,15.748-6.562,37.511-28.324,37.511s-28.324-21.763-28.324-37.511
		c0-15.311,6.562-37.4,28.324-37.4S1414.803,769.354,1414.803,784.665z M1404.086,784.665c0-7.108-2.188-28.434-17.607-28.434
		s-17.606,21.325-17.606,28.434s2.187,28.543,17.606,28.543S1404.086,791.773,1404.086,784.665z"/>
	<path fill="#933393" d="M1452.749,819.988c0,0.875-0.766,1.641-1.64,1.641h-7.655c-0.875,0-1.641-0.766-1.641-1.641v-55.883
		l-11.046,6.671c-0.765,0.547-1.858,0.328-2.405-0.438l-2.734-4.046c-0.547-0.766-0.438-1.75,0.328-2.297l19.138-15.857
		c0.875-0.765,1.859-1.093,2.953-1.093h3.062c0.874,0,1.64,0.766,1.64,1.64V819.988z"/>
	<path fill="#933393" d="M1516.834,801.616c0,7.765-4.483,21.106-23.84,21.106c-19.357,0-23.841-13.342-23.841-21.106
		c0-5.03,1.969-12.248,8.202-16.842c-6.233-4.593-8.202-11.811-8.202-16.841c0-7.765,4.483-21.106,23.841-21.106
		c19.356,0,23.84,13.342,23.84,21.106c0,5.03-1.858,12.248-8.202,16.841C1514.976,789.368,1516.834,796.586,1516.834,801.616z
		 M1506.555,767.934c0-8.312-6.562-12.358-13.561-12.358s-13.561,4.047-13.561,12.358c0,8.42,6.562,12.467,13.561,12.467
		S1506.555,776.354,1506.555,767.934z M1506.555,801.616c0-8.421-6.562-12.467-13.561-12.467s-13.561,4.046-13.561,12.467
		c0,8.312,6.562,12.357,13.561,12.357S1506.555,809.928,1506.555,801.616z"/>
</g>
</svg>
